<?xml version="1.0" encoding="utf-8"?>
<!-- Generator: Adobe Illustrator 16.0.0, SVG Export Plug-In . SVG Version: 6.00 Build 0)  -->
<!DOCTYPE svg PUBLIC "-//W3C//DTD SVG 1.1//EN" "http://www.w3.org/Graphics/SVG/1.1/DTD/svg11.dtd">
<svg version="1.1" id="Layer_1" xmlns="http://www.w3.org/2000/svg" xmlns:xlink="http://www.w3.org/1999/xlink" x="0px" y="0px"
	 width="595.28px" height="841.89px" viewBox="0 0 595.28 841.89" enable-background="new 0 0 595.28 841.89" xml:space="preserve">
<g>
	<g>
		<path fill="#FFFFFF" d="M233.095,593.632l20.366-52.416l4.535-3.305l19.29,49.418h5.61c-0.461,0.819-0.936,1.628-1.421,2.422
			c-0.488,0.793-0.987,1.626-1.498,2.496h-6.149c-0.308-0.104-0.436-0.154-0.384-0.154l-18.062-46.035l-17.6,45.497L233.095,593.632
			z"/>
		<path fill="#FFFFFF" d="M342.535,539.217l1.692,13.682h-2.075c-0.461-1.486-0.975-2.869-1.538-4.149
			c-0.564-1.281-1.307-2.409-2.228-3.382c-0.923-0.975-2.089-1.78-3.498-2.422s-3.189-1.088-5.342-1.346v41.349l5.458,3.997v1.536
			l-9.453,3.536h-1.308v-49.803h-13.604c-2.357,0.104-4.226,0.384-5.61,0.847c-1.382,0.46-2.524,1.126-3.419,1.997
			c-0.898,0.873-1.642,1.948-2.23,3.228c-0.588,1.281-1.266,2.819-2.036,4.612h-1.999l1.691-13.682H342.535z"/>
		<path fill="#FFFFFF" d="M356.984,593.632l20.367-52.416l4.534-3.305l19.29,49.418h5.61c-0.46,0.819-0.936,1.628-1.422,2.422
			c-0.488,0.793-0.987,1.626-1.498,2.496h-6.148c-0.308-0.104-0.437-0.154-0.384-0.154l-18.063-46.035l-17.6,45.497L356.984,593.632
			z"/>
		<path fill="#FFFFFF" d="M97.294,676.363v1.537l-8.915,3.536h-1.23v-31.435c0-3.329,0.511-6.393,1.537-9.184
			c1.025-2.793,2.434-5.188,4.228-7.188c1.792-1.998,3.881-3.561,6.263-4.688c2.382-1.126,4.932-1.69,7.647-1.69
			c2.509,0,4.892,0.475,7.147,1.421c2.254,0.949,4.226,2.409,5.918,4.382c1.69,1.974,3.036,4.47,4.035,7.493
			c0.999,3.024,1.5,6.635,1.5,10.837v21.441l6.146,3.536v1.537l-7.916,3.536h-1.383v-31.741c0.051-2.615-0.257-5.073-0.922-7.379
			c-0.667-2.306-1.652-4.344-2.959-6.11c-1.307-1.768-2.909-3.164-4.803-4.189c-1.896-1.022-3.997-1.536-6.303-1.536
			c-2.152,0-4.149,0.461-5.994,1.384c-1.845,0.922-3.447,2.19-4.804,3.805c-1.358,1.613-2.421,3.523-3.19,5.726
			c-0.769,2.203-1.153,4.61-1.153,7.223v23.827v-0.077L97.294,676.363z"/>
		<path fill="#FFFFFF" d="M170.459,681.82c-4.407-4.663-8.737-9.287-12.989-13.873c-4.253-4.585-8.557-9.209-12.91-13.872
			c0.254-0.716,0.51-1.447,0.767-2.189c0.256-0.743,0.512-1.474,0.77-2.19c4.405-3.741,8.722-7.403,12.95-10.992
			c4.227-3.585,8.542-7.249,12.95-10.989h0.231c4.457,4.662,8.788,9.299,12.988,13.91c4.201,4.612,8.531,9.248,12.988,13.911
			c-0.256,0.719-0.526,1.449-0.806,2.19c-0.283,0.742-0.552,1.474-0.808,2.19c-4.458,3.74-8.799,7.404-13.027,10.989
			C179.336,674.492,174.968,678.132,170.459,681.82z M169.999,632.94L148.786,651l23.748,25.593
			c3.586-3.022,7.135-6.006,10.645-8.953c3.509-2.946,7.082-5.956,10.722-9.029L169.999,632.94z"/>
		<path fill="#FFFFFF" d="M221.03,628.712v49.804h13.527c2.304-0.051,4.161-0.321,5.57-0.809c1.409-0.484,2.563-1.177,3.459-2.074
			c0.896-0.896,1.64-1.997,2.229-3.305c0.589-1.307,1.269-2.832,2.038-4.573h1.998l-1.691,13.757H217.11
			c-0.258-0.154-0.499-0.282-0.729-0.384c-0.23-0.104-0.475-0.205-0.73-0.307v-43.117l-5.458-3.919v-1.537l9.454-3.536H221.03z"/>
		<path fill="#FFFFFF" d="M273.829,628.712v49.804h13.526c2.306-0.051,4.163-0.321,5.572-0.809c1.409-0.484,2.561-1.177,3.459-2.074
			c0.895-0.896,1.638-1.997,2.229-3.305c0.588-1.307,1.268-2.832,2.038-4.573h1.997l-1.691,13.757h-31.049
			c-0.257-0.154-0.499-0.282-0.73-0.384c-0.23-0.104-0.474-0.205-0.73-0.307v-43.117l-5.456-3.919v-1.537l9.453-3.536H273.829z"/>
		<path fill="#FFFFFF" d="M325.783,676.363v1.537l-8.915,3.536h-1.23v-31.435c0-3.329,0.511-6.393,1.537-9.184
			c1.024-2.793,2.434-5.188,4.227-7.188c1.794-1.998,3.881-3.561,6.264-4.688c2.383-1.126,4.932-1.69,7.647-1.69
			c2.51,0,4.893,0.475,7.148,1.421c2.253,0.949,4.226,2.409,5.917,4.382c1.69,1.974,3.036,4.47,4.035,7.493
			c0.999,3.024,1.498,6.635,1.498,10.837v21.441l6.148,3.536v1.537l-7.915,3.536h-1.385v-31.741
			c0.051-2.615-0.257-5.073-0.922-7.379c-0.667-2.306-1.652-4.344-2.959-6.11c-1.307-1.768-2.908-3.164-4.803-4.189
			c-1.896-1.022-3.997-1.536-6.302-1.536c-2.153,0-4.151,0.461-5.996,1.384c-1.844,0.922-3.445,2.19-4.804,3.805
			c-1.357,1.613-2.42,3.523-3.188,5.726c-0.77,2.203-1.153,4.61-1.153,7.223v23.827v-0.077L325.783,676.363z"/>
		<path fill="#FFFFFF" d="M384.652,628.712v49.804v2.381l-3.919,0.615c-0.257-0.154-0.5-0.282-0.73-0.384
			c-0.23-0.104-0.474-0.205-0.729-0.307v-43.117l-5.457-3.919v-1.537l9.454-3.536H384.652z"/>
		<path fill="#FFFFFF" d="M409.169,676.363v1.537l-8.916,3.536h-1.229v-31.435c0-3.329,0.511-6.393,1.536-9.184
			c1.024-2.793,2.434-5.188,4.227-7.188c1.793-1.998,3.881-3.561,6.264-4.688c2.384-1.126,4.931-1.69,7.647-1.69
			c2.51,0,4.893,0.475,7.147,1.421c2.255,0.949,4.228,2.409,5.918,4.382c1.691,1.974,3.036,4.47,4.035,7.493
			c0.998,3.024,1.498,6.635,1.498,10.837v21.441l6.149,3.536v1.537l-7.917,3.536h-1.383v-31.741
			c0.051-2.615-0.257-5.073-0.923-7.379c-0.667-2.306-1.652-4.344-2.958-6.11c-1.307-1.768-2.908-3.164-4.805-4.189
			c-1.896-1.022-3.995-1.536-6.301-1.536c-2.152,0-4.151,0.461-5.996,1.384c-1.844,0.922-3.445,2.19-4.804,3.805
			c-1.357,1.613-2.42,3.523-3.188,5.726c-0.769,2.203-1.152,4.61-1.152,7.223v23.827v-0.077L409.169,676.363z"/>
		<path fill="#FFFFFF" d="M493.17,681.82c-6.098-4.663-12.093-9.287-17.983-13.873c-5.893-4.585-11.887-9.209-17.983-13.872
			c0.356-0.716,0.729-1.447,1.113-2.189c0.385-0.743,0.755-1.474,1.114-2.19c6.045-3.741,12.028-7.403,17.945-10.992
			c5.918-3.585,11.926-7.249,18.023-10.989l-1.153,4.303c-5.277,3.179-10.479,6.329-15.602,9.453
			c-5.124,3.126-10.325,6.303-15.602,9.53l30.818,23.441l0.923-2.074v-5.073c-0.104-2.767-0.347-4.969-0.729-6.609
			c-0.385-1.64-0.949-2.972-1.691-3.997c-0.743-1.024-1.665-1.896-2.767-2.612c-1.103-0.716-2.421-1.512-3.958-2.383v-2.383
			l11.682,1.922v25.745c-0.052,0.154-0.115,0.321-0.191,0.499c-0.077,0.181-0.257,0.437-0.539,0.77
			c-0.281,0.335-0.691,0.782-1.229,1.346C494.822,680.153,494.093,680.896,493.17,681.82z"/>
		<path fill="#E184B6" d="M207.886,765.165c2.101-0.664,4.33-1.267,6.687-1.805c2.356-0.538,4.689-1.153,6.995-1.845
			c2.305-0.692,4.507-1.511,6.609-2.459c2.1-0.947,3.958-2.139,5.572-3.574c1.614-1.433,2.894-3.177,3.843-5.227
			c0.947-2.049,1.422-4.509,1.422-7.379c0-3.226-0.436-6.12-1.307-8.684c-0.872-2.563-2.127-4.752-3.766-6.571
			c-1.641-1.818-3.625-3.201-5.957-4.151c-2.333-0.945-4.957-1.42-7.877-1.42c-1.282,0-2.588,0.204-3.92,0.614
			c-1.332,0.41-2.588,0.975-3.766,1.691c-1.179,0.719-2.229,1.536-3.15,2.46c-0.922,0.922-1.575,1.896-1.961,2.919
			c-0.383,1.027-0.448,2.063-0.19,3.114c0.254,1.049,0.921,2.035,1.997,2.957c1.742,1.488,2.932,2.936,3.575,4.344
			c0.64,1.409,0.883,2.625,0.73,3.65c-0.153,1.024-0.615,1.794-1.384,2.306c-0.769,0.514-1.64,0.576-2.613,0.19
			c-0.973-0.383-1.973-1.267-2.997-2.65c-1.026-1.383-1.872-3.431-2.535-6.148c-0.821-2.97-0.77-5.649,0.152-8.03
			c0.923-2.384,2.345-4.419,4.267-6.11c1.92-1.69,4.173-2.998,6.762-3.92c2.587-0.923,5.111-1.384,7.571-1.384
			c2.971,0,5.775,0.514,8.416,1.536c2.638,1.027,4.942,2.537,6.916,4.535c1.972,1.999,3.523,4.457,4.65,7.379
			c1.127,2.921,1.691,6.276,1.691,10.067c0,2.613-0.436,4.97-1.307,7.07c-0.871,2.104-2.012,3.984-3.42,5.649
			c-1.409,1.666-3.048,3.126-4.918,4.381c-1.872,1.256-3.792,2.358-5.763,3.305c-1.973,0.949-3.959,1.743-5.958,2.383
			c-1.998,0.642-3.843,1.167-5.534,1.575h26.9c-0.309,1.075-0.653,1.922-1.038,2.537c-0.384,0.615-0.782,1.433-1.19,2.458h-36.431
			L207.886,765.165z"/>
		<path fill="#E184B6" d="M282.129,771.236c-4.407-4.66-8.737-9.284-12.989-13.87c-4.253-4.586-8.558-9.21-12.911-13.874
			c0.257-0.717,0.511-1.445,0.768-2.19c0.256-0.741,0.512-1.472,0.77-2.19c4.405-3.739,8.723-7.403,12.95-10.989
			c4.226-3.587,8.542-7.249,12.95-10.99h0.231c4.457,4.663,8.786,9.299,12.988,13.911c4.2,4.611,8.53,9.248,12.988,13.91
			c-0.257,0.719-0.526,1.447-0.808,2.19s-0.551,1.474-0.808,2.19c-4.456,3.741-8.799,7.405-13.025,10.99
			C291.006,763.91,286.637,767.548,282.129,771.236z M281.668,722.358l-21.212,18.061l23.748,25.593
			c3.586-3.022,7.135-6.007,10.645-8.954c3.51-2.945,7.083-5.956,10.722-9.031L281.668,722.358z M283.666,748.873
			c-0.257,0.154-0.538,0.244-0.846,0.268c-0.308,0.027-0.538-0.036-0.691-0.19l-4.535-4.383c-0.359-0.356-0.538-0.767-0.538-1.228
			c0-0.564,0.153-0.973,0.461-1.23c0.717-0.717,1.447-1.459,2.191-2.229c0.742-0.77,1.473-1.511,2.189-2.229
			c0.256-0.203,0.564-0.348,0.922-0.423c0.358-0.077,0.614,0.013,0.77,0.269l4.534,4.611c0.307,0.307,0.461,0.719,0.461,1.23
			c0,0.359-0.18,0.768-0.538,1.228l0.077-0.075L283.666,748.873z"/>
		<path fill="#E184B6" d="M332.7,718.131v49.803l2.843,2.767l-6.764,0.229c-0.152-0.051-0.552-0.104-1.19-0.154
			c-0.642-0.051-1.345-0.089-2.114-0.113c-0.769-0.026-1.473-0.053-2.113-0.077c-0.642-0.026-1.012-0.065-1.114-0.116l4.918-2.998
			l0.154-40.348l-5.456-3.92v-1.536l9.453-3.536H332.7z"/>
		<path fill="#E184B6" d="M365.438,771.007l10.683-49.955h-13.604c-2.357,0.104-4.226,0.384-5.61,0.845
			c-1.383,0.462-2.524,1.128-3.419,1.999c-0.897,0.871-1.642,1.946-2.229,3.228c-0.59,1.281-1.269,2.817-2.038,4.609h-1.997
			l1.69-13.679h31.127c0.256,0.104,0.487,0.219,0.692,0.345c0.203,0.13,0.434,0.246,0.69,0.348l-10.682,43.269l5.456,3.92v1.536
			l-9.453,3.536H365.438z"/>
	</g>
	<g>
		<path fill-rule="evenodd" clip-rule="evenodd" fill="#FFFFFF" d="M51.995,160.877c6.291-3.035,14.55,3.385,24.403,2.864
			s60.75-20.115,91.464-26.576c30.715-6.461,60.351-10.364,62.246-18.285c1.896-7.922,1.971-9.502,13.302-11.28
			c11.332-1.777,42.606-0.546,63.057,1.425c20.45,1.971,68.854,8.391,121.691,23.656c52.839,15.265,99.025,33.924,108.632,31.061
			c9.607-2.864,15.701-6.928,18.751-2.864s6.677,4.129,11.514,4.836c4.838,0.707,7.055,7.542,4.099,10.96
			c-2.955,3.417-4.704,3.172-2.167,9.576c2.536,6.404-5.962,4.915-4.114,7.876s23.278,9.313,11.085,13.897
			s-37.319,8.771-67.987,15.915s-30.299,5.666-27.713,12.317c2.587,6.651,1.109,19.953-8.128,21.062
			c-9.237,1.108-14.041,1.108-14.041,7.021c0,5.911-0.121,11.956,4.383,8.63c4.503-3.325,5.98,2.586,8.566,9.237
			c2.588,6.651,10.347,20.323,26.974,28.082c16.628,7.759,45.765,11.085,50.779,11.085s7.601,6.651,4.646,7.759
			c-2.957,1.108,7.266,3.326,4.927,6.651c-2.341,3.325-4.065,10.715-9.854,16.258c-5.788,5.542-17.612,8.867-20.938,9.607
			c-3.325,0.739-3.695,10.346-11.454,19.583c-7.76,9.237-15.519,18.105-15.149,22.909c0.37,4.803-3.992,16.997-17.146,30.668
			s-15.509,28.45-21.351,41.014c-5.844,12.563-11.017,15.89-16.56,17.367c-5.542,1.479-14.033,8.128-17.731,3.325
			s-14.414-15.519-8.502-23.278c5.911-7.759,10.352-2.217,8.502-17.366c-1.852-15.148-3.598-50.392-2.908-85.054
			c0.688-34.663,8.162-92.313,0.353-83.815c11.605-12.628-23.902,27.891-66.785,67.611
			c-24.526,22.717-108.723,85.569-141.147,103.343c-29.501,16.17-64.809,33.002-79.853,37.25
			c-15.045,4.249-52.734,16.734-80.446-10.569s-30.667-55.385-20.691-85.314c9.976-29.929,26.973-38.428,32.146-48.773
			c5.173-10.346,18.254-14.041,25.754-14.411c7.5-0.37,18.215-19.583,25.236-19.213c7.021,0.37,17.829,1.108,16.304,10.346
			c-1.524,9.238-6.142,15.021,3.556,16.748c9.699,1.728,6.274,9.856,12.052,13.182c5.777,3.326,13.905,18.475,5.407,24.017
			c-8.499,5.542-16.997,7.76-14.78,13.671c2.217,5.912,8.867,24.018-0.739,24.018s-14.75-6.466-20.122-9.145
			c-5.373-2.679-18.526,0.461-26.914,0c-8.389-0.462-9.312-0.093-15.686,3.417s-6.004,15.704-2.678,26.419
			c3.326,10.716,10.072,21.394,25.865,21.799c19.414,0.5,38.864-7.387,57.51-15.758c23.593-10.592,66.038-34.004,65.668-43.981
			c-0.369-9.977,6.082-16.787,18.275-24.177c12.241-7.419,90.247-53.7,119.042-79.517c7.437-6.667,10.962-20.588,7.039-21.933
			c-3.923-1.345-7.618-4.903-20.551-1.461c-12.933,3.441-44.08,8.245-57.142,12.309c-13.063,4.065-26.661,2.834-29.099-2.093
			s-20.913-7.513-27.933-6.405s-26.604,5.912-39.905,4.064c-13.302-1.847-44.463-13.056-57.519-26.358
			c-13.055-13.302-27.589-26.604-27.096-19.953c0.492,6.651-3.941,11.454-11.578,9.915s-15.766-10.237-18.476-6.75
			c-2.708,3.486-0.739,10.137-7.389,12.847c-6.652,2.71-18.481,3.572-17.615-3.141c0.865-6.712,0.865-12.065-5.046-14.685
			c-5.913-2.62-17.121-10.831-22.849-12.575c-5.726-1.745-8.683-18.913,3.88-20.305c12.562-1.393,19.768,0.455,16.628-6.566
			c-3.142-7.021,2.771-8.313,3.14-14.41C51.457,174.364,46.25,163.648,51.995,160.877z"/>
		<path fill-rule="evenodd" clip-rule="evenodd" fill="#9D9D9D" d="M49.645,459.239c0.305-8.869-0.619-17.451,6.76-17.395
			c7.378,0.058,7.832,1.479,11.773,8.696c3.941,7.221,15.08,18.058,15.08,18.058l26.648,2.958l23.695-1.535l81.628-39.659
			l27.34-18.129l4.271-5.431c0,0-6.249,2.463-7.756-2.956c-1.507-5.419,5.363-9.355,5.363-9.355l36.871-29.648l64.252-29.871
			l57.557-64.971l11.801,6.026l-38.252,53.487l-83.524,53.64l-46.235,47.327l-44.004,27.223l-51.161,21.465l-23.252,6.611
			l-38.58,2.884l-29.04-17.107L49.645,459.239z"/>
		<path fill-rule="evenodd" clip-rule="evenodd" fill="#FFFFFF" d="M43.328,113.792c-1.819-5.474,6.467-7.935,21.986-9.8
			c15.518-1.865,54.439-11.225,68.233-17.629s30.544-8.294,37.936-11.784c7.39-3.489,18.722-16.822,24.878-16.807
			c6.159,0.016,13.595,7.405,29.831,5.927c16.234-1.478,62.052-16.258,103.436-12.316c41.383,3.941,54.685,14.78,113.312,34.979
			c58.626,20.199,125.56,35.528,124.116,38.702s-2.43,4.666-8.341,7.615c-5.912,2.949,7.197,8.984-1.575,10.4
			c-8.771,1.416-32.449,0.36-64.211-6.255c-31.761-6.616-116.006-34.751-149.999-39.651c-33.994-4.9-83.408-2.817-90.971,2.053
			s-2.636,9.304-9.533,10.783c-6.897,1.478-26.11,0.667-40.398,3.782c-14.287,3.115-28.59,10.904-41.146,14.153
			c-12.555,3.249-53.938,17.451-81.527,19.464c-27.588,2.014-33.993,1.52-29.066-12.274C55.213,121.341,46.222,122.5,43.328,113.792
			z"/>
		<path fill-rule="evenodd" clip-rule="evenodd" fill="#9D9D9D" d="M285.303,63.7v10.878l77.295,16.464l49.263,12.017l68.22,18.143
			l48.678,11.478c0,0,13.494,5.22,12.412-1.182c-1.081-6.401,4.888-2.184,3.011-5.841s-40.564-11.088-40.564-11.088L449.835,99.5
			l-51.128-17.818l-32.502-11.331l-40.329-9.301L285.303,63.7z"/>
		<path fill-rule="evenodd" clip-rule="evenodd" fill="#9D9D9D" d="M82.502,172.863c-6.011,3.326-10.839,7.004-3.942,9.919
			c6.898,2.915,63.813-8.369,63.813-8.369l104.548-22.978l29.991-5.707l51.921-5.514l54.124,12.652l22.964,8.096l56.901,17.305
			c0,0,39.641,8.715,45.833,9.727c6.191,1.012,23.201-4.333,16.75-11.32c-6.452-6.988-5.581-9.842-21.789-12.508
			s-75.991-15.471-75.991-15.471l-80.841-20.749l-69.841-6.743l-32.547,9.252L82.502,172.863z"/>
		<path fill-rule="evenodd" clip-rule="evenodd" fill="#9D9D9D" d="M285.303,256.874l-8.36,16.084l15.001,3.07l54.84-9.578
			l56.342-17.448c0,0,44.739-13.19,59.696-17.44c23.662-6.724,53.715-21.265,53.715-21.265s19.172-5.018,9.49-12.008
			c-9.683-6.991-16.611-7.595-22.411-3.688c-5.801,3.907-67.681,27.14-67.681,27.14l-80.499,23.66L285.303,256.874z"/>
		<path fill-rule="evenodd" clip-rule="evenodd" fill="#9D9D9D" d="M66.84,186.25c-5.913,1.72-12.07,1.001-11.505,15.743
			c0.564,14.743,1.557,31.529,16.826,25.353c15.269-6.176,20.257-7.167,37.862-3.469c17.605,3.699,37.603,26.853,50.859,31.78
			c13.256,4.927,49.889,20.81,59.654,14.346c9.765-6.463,32.042,3.508,35.931-2.956c3.886-6.463-8.364-14.352-16.526-18.044
			c-8.162-3.692-68.458-24.164-68.458-24.164l-38.729-22.846l-36.761-15.805C95.993,186.188,76.797,183.353,66.84,186.25z"/>
		<path fill-rule="evenodd" clip-rule="evenodd" fill="#9D9D9D" d="M70.197,109.389c-5.734,1.371-8.757,2.085-9.865,5.325
			s7.279,8.224,4.933,10.351c-2.347,2.126-8.335,5.536-6.411,11.76s38.856-0.874,50.097-4.145
			c11.241-3.271,57.906-19.664,70.783-23.292s36.383-5.941,44.396-9.956c8.013-4.015,10.78-2.785,13.095-8.39
			c2.314-5.604,4.733-16.465,0-16.464c-4.734,0.001-5.907-1.279-19.533,3.128c-13.625,4.406-40.611,5.001-50.078,6.179
			c-9.466,1.178-38.185,12.68-48.9,15.615C107.998,102.435,70.197,109.389,70.197,109.389z"/>
		<path fill-rule="evenodd" clip-rule="evenodd" fill="#9D9D9D" d="M129.606,181.028c0,0-26.739,0.829-26.85,7.25
			c-0.111,6.421,1.969,13.355,26.85,5.848c24.879-7.507,44.585-13.85,65.277-17.453c20.693-3.603,67.083-5.943,69.958-12.014
			c2.874-6.07,6.7-10.556-1.996-11.295c-8.695-0.74-16.313-3.942-27.973,0c-11.661,3.942-92.5,23.31-92.5,23.31L129.606,181.028z"/>
		<path fill-rule="evenodd" clip-rule="evenodd" fill="#E184B6" d="M276.912,145.729c0,0-9.852,16.797-7.39,32.539
			c2.463,15.741,8.375,29.043,21.677,37.172c13.302,8.128,41.708,18.078,55.586,13.965c13.879-4.112,36.295-11.255,42.946-24.558
			c6.651-13.302,10.592-22.582,10.346-31.982s-0.555-14.574-0.555-14.574l-38.366-12.562c0,0-2.217,25.865-5.665,29.56
			s-15.473,9.9-22.64,2.979s-15.939-17.39-15.939-17.39l7.541-20.662L276.912,145.729z"/>
		<path fill-rule="evenodd" clip-rule="evenodd" d="M50.288,113.951c0,0,7.882-1.479,39.412-9.361
			c31.53-7.882,71.436-21.185,73.899-20.692s6.651,1.724,1.725,2.956c-4.927,1.232-25.865,9.608-42.369,15.026
			c-16.504,5.419-39.659,9.606-51.237,10.838C60.14,113.951,51.519,115.429,50.288,113.951z"/>
		<path fill-rule="evenodd" clip-rule="evenodd" d="M227.153,100.403c1.401-1.121-8.375-1.725-20.938,0
			c-12.563,1.724-22.663,5.665-37.442,10.592c-14.78,4.927-13.302,6.405-33.009,10.839c-19.706,4.434-24.879,6.896-44.831,9.36
			c-19.954,2.464-26.851,0.739-30.299,5.173c-3.449,4.434-4.188,5.912-1.724,6.651c2.463,0.739,48.034-5.172,73.652-13.055
			c25.619-7.883,52.223-19.461,67.987-22.663C216.314,104.098,224.689,102.374,227.153,100.403z"/>
		<path fill-rule="evenodd" clip-rule="evenodd" d="M67.776,116.907c2.725-0.909,22.417-3.448,37.688-5.419
			c15.273-1.971,45.473-8.622,62.149-13.548c16.678-4.926,48.476-11.331,59.672-15.765c11.198-4.434,7.502-1.012,4.547,1.711
			c-2.956,2.723-2.217,2.723-14.533,6.417c-12.316,3.695-24.923,9.607-47.195,14.78c-22.271,5.173-44.121,10.346-61.154,14.78
			c-17.034,4.434-32.059,9.115-34.277,7.883c-2.217-1.232-1.232-3.695,0.247-4.188c1.478-0.493,6.404-1.725,10.592-3.449
			s3.942-2.956-0.493-2.217C80.586,118.631,58.909,119.863,67.776,116.907z"/>
		<ellipse fill-rule="evenodd" clip-rule="evenodd" cx="179.734" cy="86.363" rx="8.252" ry="4.68"/>
		<ellipse fill-rule="evenodd" clip-rule="evenodd" cx="196.362" cy="67.026" rx="3.202" ry="3.326"/>
		
			<ellipse transform="matrix(0.9322 -0.3619 0.3619 0.9322 -12.5867 81.9525)" fill-rule="evenodd" clip-rule="evenodd" cx="212.497" cy="74.579" rx="7.76" ry="5.459"/>
		<ellipse fill-rule="evenodd" clip-rule="evenodd" cx="232.49" cy="105.33" rx="2.382" ry="2.27"/>
		<path fill-rule="evenodd" clip-rule="evenodd" d="M496.885,110.257c-35.18-9.444-72.914-23.402-105.43-35.677
			c-32.516-12.275-46.311-16.299-78.579-16.792c-32.269-0.493-83.727,11.846-85.59,14.042c-2.821,3.325,0.421,16.627,2.823,21.246
			c2.402,4.619,4.804,2.587,16.813-0.554c12.009-3.141,47.85-5.542,72.976-5.358c25.126,0.186,41.567,7.206,72.33,14.596
			c30.762,7.39,26.007,8.767,68.201,19.445c45.325,11.47,59.921,13.071,78.21,15.288c18.29,2.216,7.39-1.109-26.234-8.868
			c-33.624-7.76-96.068-29.56-127.476-36.58s-36.95-10.716-22.355-9.361c14.596,1.355,29.545,3.888,50.807,10.592
			c27.342,8.622,60.598,18.967,80.796,24.14c20.199,5.173,55.672,10.593,62.075,10.346
			C562.656,126.513,533.588,120.11,496.885,110.257z M362.388,73.06c-7.39-0.492-17.981,0.803-27.835,0.032
			c-9.853-0.771-28.329-1.871-36.703-3.168c-8.376-1.297-13.528-2.707-7.39-2.898c6.896-0.215,22.415-1.109,35.471,0
			C338.986,68.134,369.778,73.552,362.388,73.06z"/>
		<path fill-rule="evenodd" clip-rule="evenodd" d="M57.458,164.695c3.447-1.348,6.871,4.187,17.956,3.695
			c11.085-0.492,19.287-1.97,33.538-7.882s46.027-13.794,65.487-19.214c19.46-5.42,57.395-11.917,67.741-13.349
			c10.345-1.431,7.389-1.186,5.666,1.278c-1.725,2.464-5.42,4.187-8.375,5.173c-2.956,0.986,6.159,0.609,3.449,2.768
			s-4.681,3.761-18.967,5.916c-14.288,2.155-46.31,8.806-60.105,13.24c-13.795,4.434-13.547,3.202-31.778,8.868
			c-18.227,5.666-29.559,10.345-43.353,11.331c-13.794,0.985-26.851-2.956-29.56-6.404
			C56.445,166.667,53.051,166.419,57.458,164.695z"/>
		
			<ellipse transform="matrix(0.7017 0.7125 -0.7125 0.7017 174.2475 -141.814)" fill-rule="evenodd" clip-rule="evenodd" cx="256.466" cy="137.164" rx="3.663" ry="5.197"/>
		<path fill-rule="evenodd" clip-rule="evenodd" d="M238.484,119.247c3.32-3.209,16.873-5.789,35.471-5.42
			c18.599,0.37,77.102,6.051,119.471,18.853c42.369,12.801,114.051,36.449,131.541,37.927s19.952,5.173-1.479,2.956
			c-21.43-2.217-31.036-3.45-39.412-5.42s-21.924-3.203-4.188,1.478c17.736,4.681,18.722,5.974,31.038,7.052
			c12.317,1.077,23.895,6.004,6.405,3.787c-17.49-2.217-25.126-3.449-43.848-8.129c-18.721-4.68-57.148-21.06-89.418-29.251
			s-70.697-14.442-93.113-15.135s-42.127,4.698-46.557,2.509C239.966,128.266,234.788,122.82,238.484,119.247z"/>
		<path fill-rule="evenodd" clip-rule="evenodd" d="M269.521,131.441c2.262-0.536,7.145-4.681,20.938-6.159
			c13.794-1.478,49.401,4.992,53.097,7.398c3.694,2.405,8.732,0.008-18.364,0c-27.096-0.008-35.719,0.239-44.585,2.702
			c-8.869,2.463-12.317,3.319-13.795,1.783C265.334,135.628,267.55,131.908,269.521,131.441z"/>
		<circle fill-rule="evenodd" clip-rule="evenodd" cx="546.521" cy="168.267" r="2.34"/>
		<ellipse fill-rule="evenodd" clip-rule="evenodd" cx="561.916" cy="172.948" rx="2.956" ry="2.34"/>
		
			<ellipse transform="matrix(0.9838 -0.1794 0.1794 0.9838 -24.3478 103.2482)" fill-rule="evenodd" clip-rule="evenodd" cx="558.714" cy="186.25" rx="3.202" ry="2.094"/>
		<path fill-rule="evenodd" clip-rule="evenodd" d="M309.919,144.804c0,0-11.453,8.379-10.345,20.909s9.606,21.029,14.226,23.246
			c4.619,2.217,7.943,3.51,7.39,4.619c-0.555,1.108-2.467,5.358,0.06,7.02c2.527,1.663,8.069,2.771,13.058,0
			c4.988-2.771,6.65-2.387,13.486-5.997c6.836-3.61,14.964-12.082,16.813-21.056c1.848-8.973,2.401-20.612,0-23.014
			c-2.402-2.402-11.27-4.21-12.378-3.122c-1.108,1.089,0.738,4.031,0.738,9.766c0,5.734,0.739,5.919-1.478,11.092
			c-2.218,5.173-3.481,7.205-4.975,7.575c-1.491,0.37-0.568-2.771,0.91-5.358c1.478-2.586,4.434-7.944,2.031-5.727
			c-2.401,2.217-4.248,4.064-6.28,6.281c-2.033,2.217-8.314,6.308-6.467,2.507c1.848-3.8,4.064-5.952,3.511-7.832
			c-0.555-1.88-2.217,0.522-5.543,1.076c-3.325,0.554-6.097,1.108-3.694-3.141c2.401-4.249,5.172-10.9,7.574-13.487
			c2.401-2.586,6.651-4.434-0.738-5.358C330.428,143.88,313.599,142.266,309.919,144.804z"/>
		<ellipse fill-rule="evenodd" clip-rule="evenodd" cx="250.985" cy="163.741" rx="4.064" ry="2.864"/>
		
			<ellipse transform="matrix(0.9242 0.3819 -0.3819 0.9242 129.2414 -160.3088)" fill-rule="evenodd" clip-rule="evenodd" cx="468.434" cy="245.401" rx="5.912" ry="7.112"/>
		<ellipse fill-rule="evenodd" clip-rule="evenodd" cx="425.271" cy="478.592" rx="2.908" ry="2.771"/>
		<ellipse fill-rule="evenodd" clip-rule="evenodd" cx="433.313" cy="490.785" rx="2.27" ry="2.401"/>
		<ellipse fill-rule="evenodd" clip-rule="evenodd" cx="379.139" cy="270.001" rx="3.818" ry="2.956"/>
		<circle fill-rule="evenodd" clip-rule="evenodd" cx="376.799" cy="282.441" r="2.34"/>
		<path fill-rule="evenodd" clip-rule="evenodd" d="M63.409,436.269c0.163,3.173,0.635,15.519,4.33,21.061
			c7.593,11.39,19.915,19.448,38.422,19.59c19.029,0.146,23.362-3.087,28.764-6.897c5.878-4.146,5.218-6.192,3.757-7.517
			c-2.348-2.125-25.745,14.063-50.911,3.104c-15.272-6.65-17.467-19.621-19.111-26.066C66.631,431.588,63.17,431.588,63.409,436.269
			z"/>
		<path fill-rule="evenodd" clip-rule="evenodd" d="M151.429,371.976c1.021,2.55-0.37,3.695-4.618,4.618
			c-4.249,0.924-10.9,2.084-9.607-2.099c1.293-4.183,3.26-2.335,7.173-3.444C148.289,369.943,150.321,369.205,151.429,371.976z"/>
		<ellipse fill-rule="evenodd" clip-rule="evenodd" cx="136.142" cy="409.757" rx="3.556" ry="3.417"/>
		
			<ellipse transform="matrix(0.7235 0.6903 -0.6903 0.7235 261.9822 7.5912)" fill-rule="evenodd" clip-rule="evenodd" cx="121.515" cy="330.822" rx="6.189" ry="7.76"/>
		<ellipse fill-rule="evenodd" clip-rule="evenodd" cx="35.384" cy="210.297" rx="7.944" ry="5.635"/>
		
			<ellipse transform="matrix(0.7185 0.6956 -0.6956 0.7185 188.7905 0.2115)" fill-rule="evenodd" clip-rule="evenodd" cx="94.134" cy="233.321" rx="7.205" ry="4.526"/>
		<ellipse fill-rule="evenodd" clip-rule="evenodd" cx="65.313" cy="246.046" rx="3.51" ry="2.956"/>
		<path fill-rule="evenodd" clip-rule="evenodd" d="M270.677,166.738c0,0,26.693-0.072,21.267,1.529
			c-5.426,1.602-21.099,1.848-21.267,2.34C270.507,171.1,270.677,166.738,270.677,166.738z"/>
		<path fill-rule="evenodd" clip-rule="evenodd" d="M276.943,199.059c0,0,20.291-14.411,19.429-12.44
			c-0.863,1.97-17.723,15.2-17.723,15.2L276.943,199.059z"/>
		<path fill-rule="evenodd" clip-rule="evenodd" d="M301.421,208.912c-0.576,0.216-0.614-1.602,0.985-4.065
			c1.603-2.462,6.282-4.926,7.637-4.064c1.355,0.863,2.094,1.724-0.616,5.419c-2.708,3.695-4.312,6.652-4.188,8.006
			c0.123,1.355-1.478,2.217-1.108-0.862c0.37-3.08,2.833-6.036,3.941-7.39c1.108-1.355,2.587-3.891,0.985-3.67
			c-1.601,0.221-4.311,1.576-5.42,3.177C302.529,207.064,302.406,208.542,301.421,208.912z"/>
		<path fill-rule="evenodd" clip-rule="evenodd" d="M333.813,226.155c0,0,1.848-23.401,3.203-22.786
			c1.354,0.616,0.369,7.513,0.492,12.07c0.124,4.557,1.478,10.715,1.478,10.715H333.813z"/>
		<path fill-rule="evenodd" clip-rule="evenodd" d="M394.042,167.651c0,0-12.563-1.354-14.657-2.586s-3.079,0.637-0.493,1.673
			c2.587,1.036,3.5,1.488,6.801,1.953c3.299,0.466,4.531,0.516,4.284,1.956c-0.245,1.439-4.434,1.315-7.143,0.576
			c-2.71-0.739-4.804,0.123,1.478,2.463s5.101-0.043,7.354-0.822C393.919,172.085,394.042,167.651,394.042,167.651z"/>
		<path fill-rule="evenodd" clip-rule="evenodd" d="M366.822,178.367c1.157,0.386,8.867,7.144,13.302,8.868
			c4.435,1.725,3.114,2.464,7.9,4.435c4.786,1.97,4.991,3.355,3.641,2.932c-1.35-0.423-5.999-2.317-7.723-3.179
			c-1.725-0.862-3.694-0.616-0.492,1.848s6.034,4.188,6.034,4.188l-1.46,0.833c0,0-5.916-2.886-8.448-5.801
			c-2.531-2.914-3.271-3.654-7.457-6.855C367.931,182.432,364.236,177.505,366.822,178.367z"/>
		<path fill-rule="evenodd" clip-rule="evenodd" d="M376.675,214.756c0,0-8.992-15.019-10.47-16.466
			c-1.477-1.448-1.847,0.399-2.954,0.522c-1.108,0.124-0.739,3.097,0.615,1.795c1.354-1.302,1.6-0.686,2.339,0.669
			c0.741,1.354,8.5,14.164,8.5,14.164L376.675,214.756z"/>
		<path fill-rule="evenodd" clip-rule="evenodd" d="M318.295,208.023c1.354-2.561,3.448-5.169,2.34-6.205
			c-1.107-1.036-3.312,0.072-4.488,2.905c-1.177,2.833-2.286,8.376-2.162,9.361s-1.108,2.833-1.108,4.311s0,4.312,0,4.312
			l1.602-0.124c0,0-0.369-1.232-0.124-3.326c0.247-2.094,0.369-1.477,1.108,0.862c0.739,2.34,0.862,3.818,0.862,3.818l1.355-0.616
			c0,0-1.355-3.572-1.479-6.035s0-3.572,0-3.572S316.94,210.584,318.295,208.023z M317.495,204.909
			c0.615-1.417,1.169-2.34,1.847-2.217c0.874,0.159-0.246,1.663-0.862,2.771c-0.615,1.108-2.094,3.634-2.094,3.634
			S316.879,206.326,317.495,204.909z"/>
		<path fill-rule="evenodd" clip-rule="evenodd" d="M275.187,151.871c0,0,7.572,1.985,11.483,2.971
			c3.913,0.986,13.273,2.337,10.441,3.447c-2.833,1.11-5.854,1.11-10.441,1.11c-4.585,0-13.7-0.616-13.7-0.616l0.615-1.608
			c0,0,4.188-0.131,7.144,0c2.957,0.13,9.45,0.253,0.908-2.087c-8.543-2.34-7.804-2.34-7.804-2.34L275.187,151.871z"/>
		<path fill-rule="evenodd" clip-rule="evenodd" d="M276.912,145.729c0,0,0.247-1.972-3.448-3.942c-3.696-1.97-6.159-2.217-11.824,0
			c-5.667,2.217-10.781,3.449-12.042,7.144c-1.259,3.695-1.753,6.65,3.174,6.897c4.927,0.247,8.13-1.232,12.563,0
			c4.434,1.232,5.666,2.273,8.13,0.028C275.926,153.61,277.158,152.133,276.912,145.729z"/>
		<path fill-rule="evenodd" clip-rule="evenodd" d="M276.943,147.41c0,0-3.788,11.99-4.342,23.074
			c-0.554,11.085-1.293,17.553,5.911,27.806c7.206,10.253,17.182,18.381,30.299,21.892c13.116,3.51,22.045,5.089,32.453,5.224
			s4.312,3.459-3.632,4.753c-7.945,1.293-24.354,3.879-38.135-4.619c-13.78-8.499-21.171-15.149-26.343-24.756
			c-5.173-9.607-7.738-22.54-6.825-30.299c0.913-7.759,2.1-19.975,3.314-21.789C270.858,146.881,276.943,147.41,276.943,147.41z"/>
		<path fill-rule="evenodd" clip-rule="evenodd" fill="#9D9D9D" d="M399.582,159.399c0,0-3.109,13.672,2.388,16.874
			s54.024,15.435,74.717,16.215c20.691,0.781,33.747,2.505,39.658-1.19c5.912-3.695,6.158-5.756,2.956-7.188
			c-3.202-1.433-37.739-4.698-50.03-7.623S399.582,159.399,399.582,159.399z"/>
		<path fill-rule="evenodd" clip-rule="evenodd" d="M529.4,190.56c3.014,1.11,6.158,4.68,1.479,3.941
			c-4.681-0.739-33.748-4.926-60.104-11.577c-26.358-6.651-45.817-12.809-73.161-21.185c-27.343-8.375-48.28-12.647-66.509-14.33
			c-18.229-1.682-49.267,1.766-55.917,2.998s-5.849-6.187,1.756-8.759c7.605-2.572,37.658-5.904,53.915-4.484
			c16.259,1.419,56.411,13.737,65.771,16.446c9.36,2.709,12.317,2.695,9.607,3.565c-2.71,0.869-4.188,1.361-1.354,2.1
			c2.832,0.739,60.352,16.75,77.594,20.323C499.718,183.17,524.721,188.836,529.4,190.56z"/>
		<path fill-rule="evenodd" clip-rule="evenodd" d="M399.522,158.291c2.04,0.044,4.065,0.37,3.511,11.085
			c-0.554,10.715-1.196,31.407-15.009,43.416s-29.7,19.214-44.479,21.615c-14.781,2.402-31.013,2.956-37.122,3.695
			c-6.11,0.739-8.663-0.739-6.925-3.695c1.738-2.956,6.912-5.727,14.117-6.651s45.078-1.478,57.087-10.715
			c12.009-9.238,12.748-9.053,13.486-12.008c0.739-2.956-4.434,0.923-4.249-0.924c0.185-1.847,10.334-7.944,11.726-12.193
			c1.392-4.25,2.5-7.18,1.576-10.887c-0.924-3.708-4.892-2.969-5.217-5.556c-0.326-2.586,0.032-7.575,3.641-8.313
			c3.608-0.739,5.051,0.723,4.718-2.587C396.048,161.262,395.647,158.208,399.522,158.291z"/>
		<path fill-rule="evenodd" clip-rule="evenodd" fill="#9D9D9D" d="M459.943,293.26c-6.055-0.242-8.59-10.256-14.256,2.307
			s-6.303,68.974-3.101,76.855c3.202,7.882,13.82,67.742,25.712,63.554c11.892-4.189,25.771-46.742,26.018-62.507
			c0.245-15.765,7.367-46.197,0.452-53.515C487.853,312.636,466.102,293.506,459.943,293.26z"/>
		<path fill-rule="evenodd" clip-rule="evenodd" d="M462.33,224.838c0,0-9.046,10.356-10.154,27.513
			c-1.108,17.157-0.173,21.724,4.726,34.287c4.899,12.563,19.31,35.102,42.957,43.6c23.647,8.499,25.125,7.39,35.472,6.651
			c10.346-0.739,16.627-1.224,15.148,0.497c-1.478,1.721-9.976,3.938-21.43,4.677c-11.455,0.739-25.126-2.586-37.319-8.868
			c-12.194-6.281-17.735-8.868-26.974-18.844c-9.237-9.977-18.105-23.278-16.257-16.997c1.847,6.281,6.281,20.691,22.169,31.037
			c15.888,10.347,13.671,13.672,31.038,16.627c17.365,2.956,13.302,4.065,25.126,2.956c11.823-1.108,15.354-1.847,11.741,2.217
			c-3.612,4.064-8.047,5.173-22.826,5.173c-14.78,0-25.496-4.804-39.167-13.671s-42.122-27.712-42.122-51.36
			s0.353-52.043,0.353-52.043L462.33,224.838z"/>
		<path fill-rule="evenodd" clip-rule="evenodd" d="M442.217,302.896c8.056-0.252,15.811-1.893,20.254,5.912
			c4.442,7.804,4.503,23.278,3.763,44.709c-0.738,21.431,2.188,57.272,0.354,62.814c-1.832,5.542-3.449-14.78-4.117-30.299
			c-0.67-15.519-4.365-24.756-5.104-32.885c-0.739-8.129-2.727,0.739-2.656,15.519s2.517,61.337,0,64.292
			c-2.517,2.956-3.995-45.447-4.364-62.075c-0.369-16.627-4.804-18.105-5.543,4.065c-0.738,22.169-0.369,84.245-2.586,92.375
			c-2.218,8.128-9.607,24.018-10.346-16.26c-0.739-40.273,2.587-123.041,2.587-133.756S434.21,303.146,442.217,302.896z"/>
		<path fill-rule="evenodd" clip-rule="evenodd" d="M439.999,482.841c5.035,2.961,11.824,1.847,13.303-9.238
			s19.583-38.059,29.56-49.144c9.976-11.084,18.105-26.233,4.435-11.823c-13.671,14.411-23.279,28.452-16.997,16.258
			c6.281-12.194,31.084-46.644,43.231-60.229c12.146-13.585,30.885-47.655,16.92-31.402c-13.965,16.253-43.881,43.596-56.266,64.657
			c-12.384,21.061-6.103,0.739,3.135-14.041c9.236-14.78,29.63-41.938,25.944-42.591s-20.771,18.573-25.206,25.224
			c-4.433,6.651-0.924-4.805,4.804-13.302s16.258-35.102,7.39-21.061c-8.867,14.041-35.585,52.844-40.768,61.706
			c-5.185,8.862-14.287,13.302-15.025,28.452C433.718,441.457,427.437,475.45,439.999,482.841z"/>
		<path fill-rule="evenodd" clip-rule="evenodd" fill="#9D9D9D" d="M411.86,230.364c-6.641,2.887-19.299,6.555-19.476,16.29
			c-0.176,9.735-1.018,13.655-4.36,26.303c-3.344,12.649-8.258,18.549,4.36,17.958c12.619-0.59,30.1,0.094,33.239-10.815
			c3.137-10.909,2.154-30.147,0-34.055C423.468,242.139,431.468,221.839,411.86,230.364z"/>
		<path fill-rule="evenodd" clip-rule="evenodd" d="M276.943,268.77c1.918-1.26,49.235-11.824,61.059-14.41
			c11.824-2.586,63.183-14.041,83.505-19.953c20.323-5.912,44.34-15.519,56.164-20.322c11.824-4.803,76.239-25.125,71.189-21.061
			s-37.935,14.041-50.128,18.105c-12.193,4.065-65.401,25.495-80.92,29.56c-15.519,4.065-55.794,12.563-81.289,18.105
			C311.028,264.336,263.444,277.638,276.943,268.77z"/>
		<path fill-rule="evenodd" clip-rule="evenodd" d="M568.937,204.108c-1.237,4.538-18.845,2.587-48.034,8.499
			c-29.19,5.912-48.404,11.307-64.662,18.956s-39.905,16.516-59.119,23.167c-19.214,6.651-35.842,10.715-58.75,14.779
			c-22.909,4.064-27.712,5.173-41.752,7.76c-14.042,2.586-24.497,6.282-22.041,1.847c2.456-4.434,5.043-5.15,21.301-7.378
			c16.258-2.229,29.93-5.185,41.754-7.032c11.822-1.848,46.556-11.085,56.901-14.78c10.347-3.695,41.754-15.149,62.445-25.496
			c20.691-10.346,62.075-18.475,78.702-20.322C552.31,202.261,570.045,200.043,568.937,204.108z"/>
		<path fill-rule="evenodd" clip-rule="evenodd" d="M415.35,245.401c0,0-32.809,47.288-56.511,66.723
			c-31.419,25.763-75.009,48.589-93.482,63.923c-15.395,12.777-31.913,17.146-34.069,25.029c-2.156,7.883,6.188,1.282,19.529-7.883
			c14.387-9.883,15.833-10.118,27.657-18.698c11.824-8.58,17.442-6.735,5.121,3.979c-12.32,10.714-38.704,27.044-50.89,34.918
			c-14.585,9.423-34.081,20.4-65.265,34.952c-24.825,11.585-55.663,28.692-68.471,32.756c-12.809,4.063,3.14,7.563,25.311-1.478
			c16.86-6.877,91.154-46.322,116.814-60.172c19.215-10.373-14.438,15.511-41.876,29.826
			c-27.262,14.224-62.259,25.913-65.832,33.732c-3.57,7.821,34.531-8.862,62.137-21.607
			c29.872-13.794,110.631-69.886,161.099-115.284c49.21-44.265,86.317-98.654,86.317-98.654v-13.146L415.35,245.401z
			 M389.731,302.304c-20.199,22.015-29.561,27.434-35.473,31.868c-5.912,4.434,0.519-2.396,6.405-8.868
			c9.387-10.322,31.529-34.487,38.92-41.876S409.93,280.289,389.731,302.304z"/>
		<path fill-rule="evenodd" clip-rule="evenodd" d="M538.825,184.111c-1.188,2.761-27.53,13.346-46.005,20.367
			s-47.296,15.149-66.879,22.539c-19.583,7.39-31.038,10.716-51.729,16.258c-20.691,5.543-53.207,9.977-65.771,13.302
			c-12.563,3.325-33.624,5.542-29.19,2.586c4.435-2.956,31.408-8.129,42.492-9.977c11.086-1.848,37.319-7.382,49.883-10.896
			c12.563-3.514,37.319-10.674,50.621-15.962c13.302-5.288,54.686-20.251,66.14-24.039
			C499.841,194.501,541.229,178.523,538.825,184.111z"/>
		<path fill-rule="evenodd" clip-rule="evenodd" fill="#9D9D9D" d="M103.922,383.799c-2.189,10.346-25.344,18.721-30.272,22.54
			c-4.926,3.818-5.666,10.716-14.041,9.484c-8.375-1.231-14.287-7.882-5.911-21.43s31.284-27.343,31.284-27.343L103.922,383.799z"/>
		<path fill-rule="evenodd" clip-rule="evenodd" d="M130.184,490.585c-15.411,4.971-41.938,4.063-57.643-5.175
			c-15.703-9.235-30.852-24.018-32.884-45.816c-2.033-21.8,3.14-46.557,13.302-58.196c10.161-11.639,24.017-28.333,28.635-30.734
			c4.618-2.402-2.401,22.791-2.401,22.791s0,1.478-6.098,5.542c-6.096,4.064-22.354,18.378-20.69,45.676
			c1.663,27.3,10.715,43.373,20.136,47.437c9.423,4.066,14.226,4.251,14.041,5.729c-0.185,1.478-2.956,1.293-4.434,1.848
			c-1.478,0.554-0.554,2.586,7.205,3.694c7.759,1.107,19.768,0.185,29.745-4.803c9.976-4.99,19.373-10.162,18.74-6.837
			c-0.635,3.327-6.546,9.977,3.614,5.544c10.161-4.436,24.018-8.869,15.52-2.401C148.474,481.347,147.365,485.041,130.184,490.585z"
			/>
		<path fill-rule="evenodd" clip-rule="evenodd" d="M78.602,374.496c0,0-0.807,3.022-6.533,9.673
			c-5.729,6.651-9.318,12.563-10.427,19.953c-1.109,7.39-0.923,19.4,0,16.443c0.924-2.956,4.619-20.876,10.715-26.789
			c6.098-5.912,10.9-7.021,10.9-7.021L78.602,374.496z"/>
		<ellipse fill-rule="evenodd" clip-rule="evenodd" cx="78.916" cy="403.383" rx="2.679" ry="4.064"/>
		<path fill-rule="evenodd" clip-rule="evenodd" d="M192.42,263.228c8.689,2.094,20.506,6.489,25.865,8.51
			c5.357,2.02,1.663,4.607-16.627,1.097c-18.291-3.51-31.408-7.021-44.155-14.78c-12.748-7.76-36.765-26.974-47.48-34.179
			c-10.716-7.205-21.061-11.27-23.278-10.161c-2.217,1.108-1.664,5.153-6.467,8.027c-4.802,2.874-7.39,7.095-15.888,7.663
			c-8.499,0.568-14.595,0.917-11.639-7.663c2.956-8.581,1.662-16.709,5.727-18.742c4.065-2.032,7.575-0.739,18.66,1.663
			c11.085,2.402,23.463,7.39,33.809,13.302c10.345,5.912,25.495,14.042,26.788,17.552c1.294,3.51,3.141,3.325,13.856,9.422
			C162.306,251.034,177.086,259.533,192.42,263.228z"/>
		<path fill-rule="evenodd" clip-rule="evenodd" d="M256.466,145.481c0,0-22.908,2.186-39.413,6.389
			c-16.505,4.203-24.633,5.435-41.63,10.115c-16.997,4.681-39.167,8.456-50.005,10.879c-10.838,2.423-20.938,5.625-35.718,6.364
			c-14.779,0.74-16.75-0.343-18.967,1.8c-2.217,2.143-0.493,3.866,4.68,4.851c5.173,0.986,22.416,3.202,37.195,1.479
			c14.781-1.724,55.425-14.041,77.348-19.46c21.924-5.419,62.568-15.303,68.235-16.027
			C263.856,151.147,256.466,145.481,256.466,145.481z"/>
		<path fill-rule="evenodd" clip-rule="evenodd" d="M291.944,270.001c-1.717-4.68-12.133,1.479-6.041-6.774
			c6.091-8.252,12.563-11.824-17.367-14.041c-29.93-2.217-72.791-18.105-88.802-24.348c-16.012-6.244-35.349-19.992-52.345-28.12
			c-16.997-8.129-33.625-13.781-33.625-13.781s-1.663,1.033-12.933,0c-11.27-1.034-3.641,3.25,7.76,8.423
			c11.4,5.173,9.792,8.129,2.401,5.173c-7.39-2.956-13.671-4.434-20.322-4.989c-6.651-0.554-13.486-1.293-16.627,0.944
			c-3.14,2.238,9.977,3.306,19.769,4.784c9.791,1.478,12.008,2.771,28.082,11.084c16.072,8.314,13.671,3.511,9.606,1.293
			c-4.064-2.217-7.02-6.097-2.587-4.434c4.436,1.663,18.106,8.868,28.083,12.933c9.976,4.064,22.908,18.474,13.274,13.413
			c-9.636-5.062-18.817-4.545-14.013-2.08s9.606,5.294,33.848,17.488s72.936,24.387,92.74,27.712
			C282.65,278.007,293.662,274.682,291.944,270.001z M190.018,238.29c-18.29-6.285-22.539-10.924-35.471-16.548
			c-12.932-5.625-24.941-13.015-34.733-16.709c-9.791-3.695-26.604-16.218-15.519-12.543c9.251,3.067,30.114,15.314,40.09,20.857
			c9.977,5.542,23.279,11.981,35.657,16.059C192.42,233.483,208.309,244.575,190.018,238.29z M237.224,252.697
			c-7.295-0.739-12.658-3.141-22.317-5.796c-9.659-2.655-14.174-9.354-9-7.506c5.172,1.848,7.608,4.708,16.072,6.651
			C233.25,248.632,244.52,253.436,237.224,252.697z"/>
		<path fill-rule="evenodd" clip-rule="evenodd" fill="#9D9D9D" d="M121.516,354.609c0,0,16.236,6.601,11.07,19.158
			c-5.166,12.557-6.089,22.164-6.089,22.164l-22.574-10.346L121.516,354.609z"/>
		<path fill-rule="evenodd" clip-rule="evenodd" d="M95.82,344.817c-9.99,1.665-18.474,7.205-21.246,14.965
			c-2.772,7.759-5.173,32.331,12.008,38.982c17.183,6.651,39.722,7.021,44.525-2.771c4.803-9.792,4.249-13.302,1.478-15.889
			c-2.771-2.586-5.832-2.956-8.828-0.923c-2.996,2.032-4.659-1.611-2.257-4.686c2.401-3.074,4.433,0.066,10.162-3.628
			c5.726-3.695,9.052-5.357,7.759-10.161c-1.294-4.803-2.218-9.792-8.313-11.085C125.01,348.328,112.447,342.046,95.82,344.817z"/>
		<path fill-rule="evenodd" clip-rule="evenodd" d="M463.278,277.604c1.388-2.672,4.064,13.468,15.148,25.292
			c11.086,11.823,17.736,17.735,29.93,21.061c12.194,3.325,38.428,2.956,35.472,4.804c-2.955,1.847-27.343,7.39-46.557-4.065
			c-19.214-11.454-24.756-18.475-29.189-28.082C463.647,287.007,461.062,281.872,463.278,277.604z"/>
	</g>
	<path fill="#9D9D9D" d="M466.201,739.42c-2.146-0.717-7.87,0.491-12.876-0.804c-3.923-1.019-12.115-4.695-18.82-4.695
		c-3.101,0-5.484,1.31-10.015,1.31c-4.531,0-8.822-0.235-9.656,0.956s1.699,2.755,0.983,3.233c-0.716,0.478-1.878,0.09-3.665,0.09
		c-1.789,0-8.882-0.94-8.882,6.034c0,6.973,9.775,6.259,18.956,6.259s12.993-0.12,18.358-0.478
		c5.364-0.357,8.701-1.669,12.519-1.669c3.814,0,13.113,0.598,13.708,0c0.597-0.597,0.835-1.551,0.835-4.886
		C467.646,741.432,467.267,739.773,466.201,739.42z M448.334,747.988c-9.426,2.157-14.543,1.551-21.459,1.551
		s-20.922,0.956-20.922-4.054s16.868-3.278,20.684-3.278s12.398,0.357,12.398-1.728c0-2.089-2.803-1.731-5.066-1.731
		c-2.266,0-5.068,0.599-9.298,0.599c-4.234,0-5.009-0.538-5.009-1.431c0-0.896,5.01-1.074,7.75-1.074s4.648-0.535,6.318-0.535
		c4.708,0,5.744,0.674,10.549,2.324c5.342,1.835,8.049,2.742,12.757,2.742c4.71,0,7.929,0.296,7.929,3.098
		C464.965,749.598,458.229,745.723,448.334,747.988z"/>
	<polygon fill="#9D9D9D" points="491.309,758.511 491.309,727.232 530.082,727.232 530.082,758.511 507.313,758.511 
		507.313,738.007 510.531,738.007 510.531,755.648 527.207,755.648 527.207,730.227 494.394,730.227 494.394,758.511 	"/>
	<path fill="#9D9D9D" d="M558.888,756.51c0-2.414,2.236-4.159,2.236-7.556c0-3.397-2.46-5.947-2.46-7.287
		c0-1.342,2.325-2.726,2.325-6.348c0-3.621-1.967-5.052-1.967-6.171c0-1.116,4.054-5.588,4.054-8.539
		c0-2.952-1.67-6.528-5.754-6.528c-4.081,0-5.601,4.441-5.601,6.171c0,3.696,3.158,5.962,3.158,8.489
		c0,1.429-2.116,3.343-2.116,6.384c0,4.082,2.236,5.574,2.236,6.704c0,1.88-1.907,2.921-1.907,7.273s1.847,6.258,1.847,7.45
		c0,3.428-8.85,15.11-5.439,15.11c0.894,0,6.304-11.265,7.42-11.265c1.118,0,5.321,11.265,7.378,11.265
		C567.874,771.663,558.888,761.473,558.888,756.51z M559.291,735.05c0,1.611-1.551,3.576-2.363,3.576
		c-0.812,0-1.705-2.146-1.705-3.554c0-1.407,0.863-3.553,1.705-3.553C557.859,731.52,559.291,733.439,559.291,735.05z
		 M553.925,719.986c0-2.327,1.828-3.758,3.003-3.758c1.423,0,3.793,1.387,3.793,3.621c0,2.237-2.861,5.812-3.531,5.812
		C556.519,725.661,553.925,722.311,553.925,719.986z M557.257,752.708c-0.649,0-2.034-1.921-2.034-3.912
		c0-1.987,0.729-3.909,1.705-3.909c1.066,0,2.139,2.592,2.139,4.291S557.905,752.708,557.257,752.708z"/>
	<path fill="#9D9D9D" d="M179.896,739.42c-2.146-0.717-7.868,0.491-12.875-0.804c-3.924-1.019-12.114-4.695-18.821-4.695
		c-3.1,0-5.483,1.31-10.014,1.31s-8.822-0.235-9.656,0.956c-0.834,1.191,1.699,2.755,0.984,3.233
		c-0.716,0.478-1.877,0.09-3.665,0.09c-1.791,0-8.883-0.94-8.883,6.034c0,6.973,9.776,6.259,18.957,6.259
		c9.179,0,12.993-0.12,18.358-0.478c5.364-0.357,8.7-1.669,12.517-1.669c3.815,0,13.113,0.598,13.709,0
		c0.597-0.597,0.835-1.551,0.835-4.886C181.342,741.432,180.962,739.773,179.896,739.42z M162.029,747.988
		c-9.426,2.157-14.542,1.551-21.458,1.551c-6.916,0-20.922,0.956-20.922-4.054s16.867-3.278,20.683-3.278
		c3.813,0,12.398,0.357,12.398-1.728c0-2.089-2.803-1.731-5.067-1.731s-5.066,0.599-9.298,0.599c-4.233,0-5.009-0.538-5.009-1.431
		c0-0.896,5.01-1.074,7.751-1.074c2.741,0,4.648-0.535,6.318-0.535c4.707,0,5.745,0.674,10.549,2.324
		c5.341,1.835,8.048,2.742,12.756,2.742c4.709,0,7.929,0.296,7.929,3.098C178.66,749.598,171.925,745.723,162.029,747.988z"/>
	<polygon fill="#9D9D9D" points="57.597,758.511 57.597,727.232 96.369,727.232 96.369,758.511 73.601,758.511 73.601,738.007 
		76.819,738.007 76.819,755.648 93.495,755.648 93.495,730.227 60.681,730.227 60.681,758.511 	"/>
	<path fill="#9D9D9D" d="M29.877,756.51c0-2.414,2.235-4.159,2.235-7.556c0-3.397-2.459-5.947-2.459-7.287
		c0-1.342,2.325-2.726,2.325-6.348c0-3.621-1.967-5.052-1.967-6.171c0-1.116,4.054-5.588,4.054-8.539
		c0-2.952-1.671-6.528-5.754-6.528c-4.081,0-5.602,4.441-5.602,6.171c0,3.696,3.159,5.962,3.159,8.489
		c0,1.429-2.117,3.343-2.117,6.384c0,4.082,2.237,5.574,2.237,6.704c0,1.88-1.908,2.921-1.908,7.273s1.85,6.258,1.85,7.45
		c0,3.428-8.852,15.11-5.44,15.11c0.893,0,6.303-11.265,7.419-11.265c1.118,0,5.321,11.265,7.378,11.265
		C38.862,771.663,29.877,761.473,29.877,756.51z M30.278,735.05c0,1.611-1.55,3.576-2.362,3.576c-0.812,0-1.705-2.146-1.705-3.554
		c0-1.407,0.863-3.553,1.705-3.553C28.849,731.52,30.278,733.439,30.278,735.05z M24.914,719.986c0-2.327,1.828-3.758,3.003-3.758
		c1.423,0,3.793,1.387,3.793,3.621c0,2.237-2.861,5.812-3.531,5.812C27.508,725.661,24.914,722.311,24.914,719.986z M28.246,752.708
		c-0.649,0-2.034-1.921-2.034-3.912c0-1.987,0.73-3.909,1.705-3.909c1.066,0,2.139,2.592,2.139,4.291S28.894,752.708,28.246,752.708
		z"/>
	<path fill="#9D9D9D" d="M547.008,680.029c0,0-0.063-33.223-0.004-46.557c0.014-3.199-5.181-11.867-8.808-10.96
		c-2.319,0.581-5.158,36.534-5.158,36.534l10.26,9.995v10.987H547.008z M536.952,658.147c0,0,1.237-28.26,3.07-30.095
		c1.292-1.289,3.682,2.554,3.682,6.435c0,4.35-0.355,28.755-0.355,28.755L536.952,658.147z"/>
	<path fill="#9D9D9D" d="M50.313,680.029c0,0-0.064-33.223-0.005-46.557c0.015-3.199-5.181-11.867-8.807-10.96
		c-2.319,0.581-5.159,36.534-5.159,36.534l10.261,9.995v10.987H50.313z M40.257,658.147c0,0,1.237-28.26,3.07-30.095
		c1.291-1.289,3.682,2.554,3.682,6.435c0,4.35-0.355,28.755-0.355,28.755L40.257,658.147z"/>
	<path fill="#9D9D9D" d="M15.946,695.777c2.956-1.478,19.469,0.984,34.367,0s42.857,3.274,63.548,3.274
		c20.693,0,53.333-0.802,72.053-1.299c18.722-0.498,57.125,2.46,82.754,2.46c25.631,0,96.82-4.921,123.794-4.921
		c26.973,0,104.199,2.95,122.426,2.95c18.229,0,55.918-3.573,51.854,0.738c-1.963,2.083-26.604,1.232-46.064,1.232
		c-19.46,0-110.479-0.926-128.215-0.926s-32.516,1.479-53.762,2.588c-21.247,1.108-52.654,0.924-70.205,0.924
		s-55.424-2.68-82.49-2.68c-27.066,0-25.587,1.94-74.084,1.94c-34.939,0-34.446-3.932-61.609-3.008S13.545,696.979,15.946,695.777z"
		/>
	<path fill="#9D9D9D" d="M566.691,784.141c-2.955-1.48-19.468,0.984-34.367,0c-14.897-0.986-42.856,3.271-63.548,3.271
		s-53.332-0.802-72.053-1.299c-18.721-0.495-57.125,2.46-82.756,2.46c-25.629,0-96.819-4.918-123.792-4.918
		c-26.973,0-104.198,2.947-122.426,2.947c-18.228,0-55.917-3.572-51.854,0.739c1.963,2.082,26.604,1.231,46.064,1.231
		s110.48-0.923,128.215-0.923c17.736,0,32.516,1.478,53.762,2.586c21.247,1.108,52.653,0.924,70.205,0.924
		c17.552,0,55.425-2.68,82.49-2.68s25.588,1.94,74.084,1.94c34.939,0,34.447-3.932,61.608-3.009
		C559.487,788.336,569.093,785.34,566.691,784.141z"/>
	<path fill="#9D9D9D" d="M566.691,607.15c-2.955-1.478-19.468,0.984-34.367,0c-14.897-0.984-42.856,3.274-63.548,3.274
		s-53.332-0.804-72.053-1.299c-18.721-0.497-57.125,2.458-82.756,2.458c-25.629,0-96.819-4.918-123.792-4.918
		c-26.973,0-104.198,2.947-122.426,2.947c-18.228,0-55.917-3.571-51.854,0.74c1.963,2.083,26.604,1.23,46.064,1.23
		s110.48-0.924,128.215-0.924c17.736,0,32.516,1.478,53.762,2.586c21.247,1.11,52.653,0.926,70.205,0.926
		c17.552,0,55.425-2.68,82.49-2.68s25.588,1.939,74.084,1.939c34.939,0,34.447-3.931,61.608-3.007
		C559.487,611.349,569.093,608.353,566.691,607.15z"/>
	<path fill="#FFFFFF" d="M256.223,577.978c-0.256,0.152-0.537,0.243-0.845,0.268c-0.307,0.026-0.537-0.038-0.692-0.19l-4.533-4.383
		c-0.359-0.357-0.538-0.768-0.538-1.23c0-0.562,0.153-0.97,0.46-1.228c0.717-0.717,1.447-1.462,2.19-2.229
		c0.742-0.769,1.472-1.51,2.19-2.229c0.255-0.205,0.563-0.347,0.921-0.422c0.358-0.077,0.615,0.012,0.77,0.268l4.535,4.612
		c0.307,0.307,0.46,0.716,0.46,1.228c0,0.359-0.181,0.77-0.539,1.23l0.078-0.075L256.223,577.978z"/>
	<path fill="#FFFFFF" d="M380.496,577.978c-0.257,0.152-0.537,0.243-0.845,0.268c-0.308,0.026-0.537-0.038-0.691-0.19l-4.534-4.383
		c-0.359-0.357-0.539-0.768-0.539-1.23c0-0.562,0.154-0.97,0.462-1.228c0.717-0.717,1.446-1.462,2.19-2.229
		c0.742-0.769,1.472-1.51,2.19-2.229c0.256-0.205,0.563-0.347,0.922-0.422c0.358-0.077,0.614,0.012,0.769,0.268l4.534,4.612
		c0.308,0.307,0.462,0.716,0.462,1.228c0,0.359-0.181,0.77-0.539,1.23l0.077-0.075L380.496,577.978z"/>
	<g>
		<g>
			<path fill="#9D9D9D" d="M539.532,590.073h-0.021C539.52,590.476,539.532,590.073,539.532,590.073z"/>
			<path fill="#9D9D9D" d="M543.814,567.921c-6.314-8.454-17.213-19.454-18.027-20.879c-0.813-1.425,0-6.009-1.119-8.86
				c-1.12-2.853-21.287,0.719-21.287,4.155h6.32c3.074,0,3.687,1.344,3.687,6.729c0,2.227,0.133,8.459,1.373,10.846
				c1.214,2.335,2.862,2.755,3.17,7.289c0.2,2.941,0.886,2.412,0.886,8.751c0,3.112-1.221,4.953-1.833,7.029
				c-0.655,2.229-0.342,4.614-1.374,4.576c-5.191-0.193-11.083-1.507-11.083,1.167c0,0.917,0,1.261,0,1.374l34.303-0.024
				c-0.003-0.175-0.005-0.485-0.005-1.069c0-1.935-7.333-1.628-8.963-1.628c-1.628,0-0.713-5.501-0.406-5.909
				c0.305-0.408,3.462,2.75,4.787,1.63c1.321-1.12,0.712-6.926,1.222-6.926c0.508,0,4.583,8.454,7.332,10.898
				c2.75,2.443,9.27,5.397,10.797,3.156C555.12,587.986,550.13,576.376,543.814,567.921z M524.057,587.593
				c-2.444,0-4.169,0.404-4.169-1.175c0-1.578-0.051-4.702,1.374-4.736c3.342-0.077,5.844-1.236,5.118,3.132
				C525.923,587.572,526.502,587.593,524.057,587.593z M521.439,569.176c0.027-1.05,4.584,7.188,4.533,9.165
				c-0.05,1.979-1.783,1.376-3.005,1.376s-1.987-1.248-1.936-4.786C521.083,571.391,521.388,571.212,521.439,569.176z
				 M532.179,580.244c-0.802,0-2.675-0.243-4.736-5.438c-2.063-5.194-5.92-10.732-7.867-13.597
				c-1.948-2.864-3.782-4.378-3.896-12.094c-0.117-7.716,0.305-6.723-1.108-6.837c-1.414-0.113-2.75-1.069-3.361-2.023
				c0,0,6.722-0.611,8.747-0.611c2.024,0,3.438,1.3,3.438,4.087c0,2.789,3.207,6.759,3.207,7.677c0,0.917-0.068,1.675-2.208,1.675
				c-2.138,0-3.438-1.007-4.735-0.051c-1.299,0.954-0.352,4.411,0.833,6.205c1.184,1.797,10.39,11.154,11.458,12.605
				c1.069,1.451,0.803,4.353,0.803,5.958C532.752,579.404,532.98,580.244,532.179,580.244z M530.964,567.854
				c-4.075-3.261-9.881-9.224-9.881-12.072c0-1.325,2.922-1.193,5.163-1.193c2.24,0,1.554-1.652,5.245,2.038
				c2.396,2.394,3.003,2.941,6.722,7.456c3.719,4.514,9.454,13.953,9.098,14.309C546.952,578.748,535.038,571.114,530.964,567.854z
				 M537.939,575.639c0.589-0.631,7.638,4.498,9.574,6.524c1.937,2.021,3.871,4.478,3.056,5.497c-0.815,1.019-5.837-1.5-8.128-4.251
				C540.148,580.661,537.276,576.354,537.939,575.639"/>
		</g>
		<circle fill="#9D9D9D" cx="518.549" cy="542.178" r="1.579"/>
	</g>
	<g>
		<g>
			<path fill="#9D9D9D" d="M62.901,590.073h-0.02C62.889,590.476,62.901,590.073,62.901,590.073z"/>
			<path fill="#9D9D9D" d="M67.185,567.921c-6.315-8.454-17.213-19.454-18.027-20.879c-0.815-1.425,0-6.009-1.12-8.86
				c-1.121-2.853-21.288,0.719-21.288,4.155h6.321c3.075,0,3.686,1.344,3.686,6.729c0,2.227,0.134,8.459,1.374,10.846
				c1.214,2.335,2.862,2.755,3.169,7.289c0.2,2.941,0.887,2.412,0.887,8.751c0,3.112-1.222,4.953-1.833,7.029
				c-0.656,2.229-0.343,4.614-1.375,4.576c-5.191-0.193-11.083-1.507-11.083,1.167c0,0.917,0,1.261,0,1.374l34.304-0.024
				c-0.004-0.175-0.006-0.485-0.006-1.069c0-1.935-7.333-1.628-8.962-1.628s-0.713-5.501-0.406-5.909
				c0.305-0.408,3.461,2.75,4.786,1.63c1.322-1.12,0.713-6.926,1.223-6.926c0.507,0,4.582,8.454,7.332,10.898
				c2.75,2.443,9.268,5.397,10.796,3.156C78.489,587.986,73.5,576.376,67.185,567.921z M47.426,587.593
				c-2.444,0-4.169,0.404-4.169-1.175c0-1.578-0.051-4.702,1.375-4.736c3.343-0.077,5.844-1.236,5.119,3.132
				C49.292,587.572,49.871,587.593,47.426,587.593z M44.81,569.176c0.026-1.05,4.583,7.188,4.532,9.165
				c-0.05,1.979-1.781,1.376-3.003,1.376c-1.223,0-1.987-1.248-1.937-4.786C44.452,571.391,44.757,571.212,44.81,569.176z
				 M55.547,580.244c-0.802,0-2.673-0.243-4.736-5.438c-2.062-5.194-5.919-10.732-7.868-13.597
				c-1.948-2.864-3.782-4.378-3.895-12.094c-0.116-7.716,0.304-6.723-1.108-6.837c-1.413-0.113-2.75-1.069-3.362-2.023
				c0,0,6.723-0.611,8.747-0.611c2.025,0,3.438,1.3,3.438,4.087c0,2.789,3.208,6.759,3.208,7.677c0,0.917-0.069,1.675-2.208,1.675
				c-2.138,0-3.437-1.007-4.735-0.051c-1.299,0.954-0.352,4.411,0.834,6.205c1.184,1.797,10.388,11.154,11.457,12.605
				c1.07,1.451,0.804,4.353,0.804,5.958C56.122,579.404,56.349,580.244,55.547,580.244z M54.333,567.854
				c-4.076-3.261-9.881-9.224-9.881-12.072c0-1.325,2.923-1.193,5.164-1.193c2.239,0,1.553-1.652,5.244,2.038
				c2.396,2.394,3.003,2.941,6.722,7.456c3.718,4.514,9.453,13.953,9.098,14.309C70.321,578.748,58.408,571.114,54.333,567.854z
				 M61.308,575.639c0.589-0.631,7.639,4.498,9.574,6.524c1.937,2.021,3.871,4.478,3.056,5.497c-0.814,1.019-5.836-1.5-8.128-4.251
				C63.519,580.661,60.646,576.354,61.308,575.639"/>
		</g>
		<circle fill="#9D9D9D" cx="41.919" cy="542.178" r="1.579"/>
	</g>
	<path fill="#9D9D9D" d="M431.765,571.317c0-1.127,3.569-6.747,4.523-6.747c0.957,0,3.374,4.161,4.443,4.161
		c1.068,0,2.474-4.161,3.485-4.161s2.812,3.71,4.047,3.71c1.238,0,1.855-3.71,3.037-3.71s2.868,4.047,3.711,4.047
		c0.842,0,2.36-4.047,3.709-4.047c1.35,0,2.362,3.71,3.095,3.71c0.731,0,2.644-3.71,3.937-3.71c1.291,0,2.643,3.71,4.046,3.71
		c1.405,0,2.138-3.71,3.317-3.71c1.183,0,2.419,3.71,3.71,3.71c1.294,0,2.363-3.71,3.993-3.71c1.631,0,5.116,6.071,5.116,6.802
		s-0.28,1.238-0.955,1.238c-0.676,0-2.812-4.021-4.05-4.021c-1.237,0-2.53,4.021-3.936,4.021c-1.404,0-2.979-3.15-3.879-3.15
		s-1.91,3.15-3.317,3.15c-1.404,0-2.697-3.431-4.104-3.431c-1.405,0-1.798,3.431-3.542,3.431c-1.741,0-2.474-3.376-3.484-3.376
		c-1.013,0-2.36,3.376-3.768,3.376c-1.405,0-2.417-3.542-3.542-3.542c-1.124,0-1.462,3.542-2.979,3.542s-2.812-3.205-3.878-3.205
		c-1.07,0-2.308,3.205-3.825,3.205s-3.037-3.654-4.161-3.654s-2.333,3.849-3.346,3.849
		C432.156,572.805,431.765,573.004,431.765,571.317z"/>
	<path fill="#9D9D9D" d="M101.413,571.317c0-1.127,3.569-6.747,4.524-6.747c0.957,0,3.375,4.161,4.442,4.161
		c1.068,0,2.474-4.161,3.485-4.161c1.013,0,2.811,3.71,4.047,3.71c1.238,0,1.856-3.71,3.037-3.71c1.182,0,2.868,4.047,3.711,4.047
		c0.843,0,2.361-4.047,3.709-4.047c1.35,0,2.362,3.71,3.094,3.71c0.731,0,2.643-3.71,3.936-3.71c1.292,0,2.643,3.71,4.048,3.71
		s2.136-3.71,3.317-3.71c1.181,0,2.418,3.71,3.71,3.71c1.293,0,2.362-3.71,3.993-3.71c1.63,0,5.115,6.071,5.115,6.802
		s-0.28,1.238-0.954,1.238c-0.676,0-2.811-4.021-4.049-4.021c-1.237,0-2.531,4.021-3.936,4.021c-1.406,0-2.98-3.15-3.879-3.15
		c-0.899,0-1.91,3.15-3.317,3.15c-1.405,0-2.698-3.431-4.105-3.431c-1.405,0-1.797,3.431-3.541,3.431
		c-1.743,0-2.475-3.376-3.485-3.376c-1.012,0-2.361,3.376-3.768,3.376c-1.405,0-2.417-3.542-3.542-3.542s-1.462,3.542-2.98,3.542
		c-1.517,0-2.812-3.205-3.878-3.205c-1.068,0-2.307,3.205-3.825,3.205c-1.516,0-3.037-3.654-4.159-3.654
		c-1.125,0-2.334,3.849-3.347,3.849C101.805,572.805,101.413,573.004,101.413,571.317z"/>
	<path fill="#FFFFFF" d="M215.708,560.963c0-5.838-0.942-13.61-3.685-18.031c-2.743-4.42-2.896-6.103-6.707-7.772
		c-3.81-1.673-13.027-0.942-15.585-0.942c-2.56,0-2.444-1.692-3.067-1.175c-1.333,1.102-6.706,4.534-9.449,5.45
		c-2.744,0.915-6.649,2.306-6.496,3.371c0.152,1.068-0.927,3.813-0.006,3.965c0.918,0.152,3.511,0.763,3.969,2.285
		c0.457,1.524,0.152,8.649,0.306,12.46c0.15,3.81,0.163,12.824,0.315,16.33c0.152,3.506,0.599,9.315-1.079,11.753
		c-1.678,2.438-3.452,0.916-4.241,1.829c-0.789,0.913-0.332,4.729,0.737,4.729c1.065,0,16.971,0,22.126,0
		c5.155,0,17.805,0.757,21.006-12.502C217.053,569.451,215.708,566.801,215.708,560.963z M204.117,566.707
		c1.257-0.284,2.229,0.116,4.147,0c1.918-0.113,4.655-0.456,5.03,0c0.375,0.459,0.56,2.008,0.193,2.467
		c-0.369,0.456-2.624,0.359-4.681,0.473c-2.058,0.113-4.289-0.424-4.689-0.481C203.716,569.108,203.045,566.953,204.117,566.707z
		 M204.289,561.678c0.408-0.321,2.057-0.344,3.483-0.309c1.427,0.034,3.773,0.081,4.517,0.023c0.743-0.059,1.143-0.115,1.152,1.2
		c0.01,1.315-0.18,0.973-1.208,1.368c-1.028,0.397-3.602,0.347-5.088,0.39c-1.486,0.045-2.743-0.215-3.316-0.785
		C203.26,562.992,203.625,562.199,204.289,561.678z M213.294,557.871c-0.025,1.108-0.146,0.892-1.519,1.193
		c-1.372,0.303-2.628,0.041-3.771-0.016c-1.144-0.057-3.887,0.229-4.23-0.4c-0.343-0.627-0.413-1.466,0-2.115
		c0.286-0.448,2.572-0.17,3.999,0c1.427,0.173,4.689-0.284,5.316,0C213.718,556.819,213.318,556.763,213.294,557.871z
		 M211.433,546.479c0.457,0.347,0.686,1.598,0.513,2.03c-0.17,0.434-3.372-0.148-5.029-0.092s-2.743,0.173-3.087,0
		c-0.341-0.173-0.423-1.257,0-1.938c0.252-0.408,3.144-0.061,4.174,0C209.032,546.54,210.974,546.133,211.433,546.479z
		 M203.716,541.121c0.527-0.28,0.343-0.041,2,0c1.658,0.036,2.63-0.51,3.031,0.079c0.4,0.588,1.027,1.218,0.97,2.018
		c-0.057,0.8-1.78,0.644-3.062,0.635c-1.281-0.008-2.481,0.392-2.826-0.292C203.488,542.874,203.145,541.423,203.716,541.121z
		 M203.542,551.676c0.741-0.399,8.747-0.286,9.434,0c0.685,0.286,0.056,1.086,0,1.772c-0.058,0.686-0.857,0.228-4.229,0.284
		c-3.373,0.059-4.917,0.286-5.205,0C203.254,553.448,203.025,551.956,203.542,551.676z M180.509,539.746
		c1.487,0.228-0.323,1.383-0.551,2.288c-0.229,0.905-3.847,0.256-4.418-0.314C174.998,541.178,179.023,539.517,180.509,539.746z
		 M179.879,588.423c-0.478,0.181-2.524,0.446-2.735,0.053c-0.313-0.591,0.365-1.801,0.892-1.878
		C178.853,586.477,180.431,588.212,179.879,588.423z M173.804,544.084c0.957-0.359,5.235-0.01,4.893,0.79
		c-0.344,0.8-0.274,2.202-1.263,2.318C176.441,547.306,173.11,544.346,173.804,544.084z M183.254,592.848
		c-0.762,0.152-4.427,0.357-5.189,0.333c-0.658-0.018-2.016-0.01-3.236,0.079c-1.22,0.092-2.321,0.207-2.168-0.313
		c0.152-0.52,1.618-1.946,2.59-2.027c0.695-0.057,1.439-0.045,2.733-0.235c1.296-0.191,3.395-0.242,3.813,0.105
		C182.218,591.135,184.017,592.696,183.254,592.848z M201.583,587.055c0.11,2.542-0.076,3.352-1.294,5.026
		c-1.22,1.675-4.787,0.747-5.549,0.873c-0.762,0.123-0.929-0.551-0.775-1.466c0.151-0.914-0.569-1.436-2.332-1.342
		c-1.94,0.102-2.918-0.485-3.549-2.513c-0.777-2.501-0.947-17.24-0.947-22.879c0-5.64,0.231-8.698,0.079-11.518
		s-0.139-10.095,0.394-12.229c0.533-2.133,1.104-3.542,2.542-4.175c1.905-0.839,3.505-0.382,5.562-0.534
		c2.059-0.152,3.507,0,4.576,0.992c1.064,0.989,0.685,1.675,0.761,4.902c0.076,3.229,0.533,9.5,0.664,14.683
		c0.13,5.182,0.384,12.57,0.308,18.133C201.945,580.573,201.483,584.789,201.583,587.055z M208.747,588.396
		c-0.686,1.056-1.715,1.06-2.745,1.23c-1.029,0.172-2.572-0.286-2.769-0.914c-0.195-0.629-0.327-0.749,0.239-1.229
		c0.842-0.713,4.015-0.314,5.063-0.314C209.584,587.169,209.431,587.341,208.747,588.396z M210.689,584.313
		c-0.856,0.687-2.972,0.228-4.572,0.286c-1.601,0.057-2.457-0.059-2.57-0.687c-0.112-0.629-0.45-2.2,0.155-2.328
		c1.089-0.227,2.093-0.047,3.577-0.105c1.488-0.055,4.615-0.298,4.787,0.16C212.237,582.094,211.546,583.626,210.689,584.313z
		 M211.146,579.169c-1.429,0.343-5.487,0-6.63,0c-1.143,0-1.374-2.448-0.393-2.633c0.916-0.173,6.25-0.057,7.679,0
		c1.428,0.057,1.173,0.574,1.173,1.374C212.976,578.712,212.575,578.826,211.146,579.169z M213.294,574.171
		c-0.54,0.26-1.953,0.1-4.068,0.156c-2.114,0.058-4.767,0.212-5.281-0.475c-0.515-0.687-0.735-1.78,0-1.999
		c1.714-0.516,3.772,0.113,6.172,0c2.401-0.116,3.259-0.4,3.324,0.57C213.508,573.396,213.833,573.909,213.294,574.171z"/>
</g>
</svg>
